<svg width="151" height="34" viewBox="0 0 151 34" fill="none" xmlns="http://www.w3.org/2000/svg">
<g clip-path="url(#clip0_3090_4669)">
<mask id="mask0_3090_4669" style="mask-type:luminance" maskUnits="userSpaceOnUse" x="0" y="0" width="151" height="34">
<path d="M151 0H0V34H151V0Z" fill="white"/>
</mask>
<g mask="url(#mask0_3090_4669)">
<path d="M139.37 10.1191C139.405 10.1191 139.405 10.1191 139.44 10.1191C139.475 10.1191 139.51 10.1191 139.545 10.1191C140.102 10.1191 141.007 11.9049 142.331 15.5115C143.097 17.6825 143.758 19.4683 144.315 20.8689C144.176 21.149 144.003 21.5692 143.793 22.0595C142.992 23.8802 142.366 24.8607 141.913 25.0357C141.809 25.0708 141.634 25.1408 141.391 25.1758C140.798 25.2808 140.485 25.561 140.485 25.9811C140.485 26.2963 140.589 26.5414 140.798 26.7515C141.007 26.9616 141.285 27.0667 141.564 27.0667C142.4 27.0667 143.585 25.2108 145.151 21.4991C145.883 19.7834 146.475 18.4179 146.927 17.3324C147.868 15.2314 148.738 13.2356 149.574 11.3097C149.678 11.0296 149.748 10.8895 149.783 10.8545C149.923 10.6094 150.062 10.4343 150.235 10.2942C150.41 10.1892 150.619 10.1191 150.898 10.1191H151.002V9.31381C150.619 9.34882 150.27 9.38384 149.923 9.38384C149.574 9.41885 149.295 9.41886 149.052 9.41886C148.738 9.41886 148.425 9.41885 148.077 9.38384C147.729 9.34882 147.38 9.34882 147.032 9.31381V10.1542H147.206C147.589 10.1542 147.868 10.1892 148.042 10.2942C148.216 10.3993 148.286 10.5744 148.286 10.7845C148.286 10.9946 148.077 11.6949 147.624 12.8504C147.172 14.0058 146.44 15.8617 145.361 18.4179C144.943 17.2273 144.385 15.7217 143.758 13.9709C143.061 12.115 142.749 11.0996 142.749 10.8895C142.749 10.6094 142.818 10.4343 142.992 10.3293C143.167 10.2243 143.41 10.1892 143.793 10.1892H144.107V9.38384C143.445 9.41885 142.957 9.45388 142.609 9.48889C142.261 9.52391 141.948 9.52391 141.703 9.52391C141.46 9.52391 141.146 9.52391 140.798 9.48889C140.45 9.45388 139.998 9.45388 139.405 9.41886L139.37 10.1191ZM131.953 9.48889C131.36 9.66397 130.803 9.83908 130.246 9.9441L130.385 10.6794C130.56 10.6444 130.664 10.6444 130.734 10.6444C130.803 10.6444 130.873 10.6444 130.942 10.6444C131.256 10.6444 131.466 10.7845 131.57 10.9946C131.674 11.2397 131.744 11.7648 131.744 12.6052V16.4569V17.6825C131.744 18.6979 131.639 19.3282 131.431 19.5734C131.221 19.8185 130.838 19.9935 130.281 19.9935H130.002V20.7988C130.525 20.7639 131.013 20.7288 131.5 20.6938C131.988 20.6589 132.441 20.6589 132.893 20.6589C133.206 20.6589 133.624 20.6589 134.112 20.6938C134.6 20.7288 135.122 20.7639 135.714 20.7988V19.9935H135.365C134.808 19.9935 134.425 19.9235 134.182 19.7834C133.938 19.6433 133.799 19.3633 133.729 18.9781C133.694 18.768 133.659 18.2778 133.659 17.5074C133.659 16.7371 133.624 15.7217 133.624 14.461V13.1655C134.077 12.4302 134.495 11.87 134.878 11.5198C135.261 11.1697 135.679 10.9946 136.097 10.9946C136.306 10.9946 136.55 11.0645 136.863 11.2046C137.141 11.3447 137.386 11.4147 137.525 11.4147C137.734 11.4147 137.943 11.3097 138.116 11.0996C138.291 10.8895 138.361 10.6444 138.361 10.3642C138.361 9.9441 138.222 9.62895 137.977 9.38384C137.734 9.13873 137.386 9.03368 136.933 9.03368C136.376 9.03368 135.818 9.27879 135.296 9.76905C134.774 10.2592 134.182 11.0645 133.554 12.1851C133.554 11.5898 133.589 10.9946 133.624 10.4693C133.66 9.90903 133.694 9.38384 133.764 8.85861C133.137 9.10371 132.545 9.31381 131.953 9.48889ZM124.117 13.3055C123.246 13.3756 122.028 13.3756 120.495 13.3756C120.67 12.3601 121.017 11.5548 121.541 10.9595C122.063 10.3642 122.724 10.0491 123.456 10.0491C124.117 10.0491 124.675 10.2942 125.162 10.8195C125.65 11.3447 125.997 12.0801 126.207 13.0255C125.685 13.1655 124.988 13.2706 124.117 13.3055ZM126.939 10.3642C126.137 9.45387 125.022 8.99867 123.664 8.99867C122.202 8.99867 120.948 9.62895 119.904 10.8195C118.894 12.045 118.371 13.5507 118.371 15.3715C118.371 17.0522 118.859 18.4528 119.834 19.5383C120.809 20.6238 122.063 21.149 123.56 21.149C124.326 21.149 125.128 20.974 125.928 20.6589C126.729 20.3437 127.53 19.8185 128.331 19.1882L127.879 18.4528C127.251 18.873 126.66 19.1531 126.137 19.3633C125.615 19.5734 125.022 19.6433 124.465 19.6433C123.177 19.6433 122.202 19.2232 121.505 18.3828C120.809 17.5424 120.461 16.3519 120.461 14.8462V14.356C120.774 14.3211 121.123 14.286 121.505 14.286C121.888 14.251 122.271 14.251 122.724 14.251H128.401C128.226 12.5703 127.773 11.2747 126.939 10.3642ZM105.556 10.1542H105.66C106.217 10.1542 106.705 10.7144 107.122 11.87C107.193 12.045 107.262 12.1851 107.262 12.2551C108.48 15.3715 109.316 17.5775 109.769 18.838C110.222 20.0985 110.431 20.8339 110.431 21.114H111.72C111.789 20.6238 112.973 17.8575 115.202 12.8153L115.342 12.5002C115.411 12.3252 115.515 12.115 115.62 11.8349C116.072 10.7144 116.596 10.1542 117.118 10.1542H117.257V9.34882C116.874 9.38384 116.525 9.41886 116.178 9.41886C115.829 9.45388 115.55 9.45388 115.307 9.45388C114.993 9.45388 114.679 9.45388 114.331 9.41886C113.984 9.38384 113.67 9.38384 113.321 9.34882V10.1542H113.496C113.878 10.1542 114.157 10.1892 114.331 10.2942C114.506 10.3993 114.575 10.5744 114.575 10.7845C114.575 10.9946 114.402 11.5898 114.018 12.5703C113.635 13.5507 112.834 15.5465 111.58 18.5579C111.162 17.4374 110.675 16.0017 110.013 14.286C109.247 12.2201 108.864 11.0645 108.864 10.8545C108.864 10.5744 108.933 10.3993 109.108 10.2942C109.282 10.1892 109.526 10.1542 109.909 10.1542H110.222V9.34882C109.561 9.38384 109.073 9.41885 108.725 9.45388C108.376 9.48889 108.064 9.48889 107.819 9.48889C107.575 9.48889 107.262 9.48889 106.914 9.45388C106.565 9.41885 106.113 9.41885 105.521 9.38384L105.556 10.1542ZM94.7252 10.7845C93.576 11.975 92.984 13.4456 92.984 15.1613C92.984 16.8772 93.5064 18.3128 94.5859 19.4333C95.6655 20.5537 97.0236 21.114 98.6957 21.114C100.366 21.114 101.76 20.4837 102.874 19.2582C103.988 18.0327 104.581 16.527 104.581 14.7062C104.581 13.0604 104.059 11.6949 102.978 10.6094C101.899 9.52391 100.541 8.96365 98.9042 8.96365C97.2674 8.99867 95.8744 9.59394 94.7252 10.7845ZM101.377 11.6598C102.108 12.6403 102.491 13.9008 102.491 15.4065C102.491 16.8071 102.177 17.8926 101.516 18.733C100.855 19.5383 99.9836 19.9586 98.9042 19.9586C97.7897 19.9586 96.8495 19.4333 96.153 18.4179C95.4565 17.4023 95.1082 16.0718 95.1082 14.4261C95.1082 13.1305 95.4217 12.115 96.0485 11.3447C96.6754 10.5744 97.5111 10.1892 98.5564 10.1892C99.74 10.2243 100.645 10.7144 101.377 11.6598ZM89.5014 19.2932C89.014 19.4683 88.5613 19.5383 88.0737 19.5383C86.7852 19.5383 85.81 19.0831 85.0787 18.2077C84.3474 17.3324 83.9992 16.0718 83.9992 14.4961C83.9992 13.2356 84.3126 12.2551 84.9046 11.5198C85.4966 10.7845 86.2976 10.4343 87.3076 10.4343C87.8647 10.4343 88.4916 10.6444 89.1184 11.0296C89.7453 11.4147 90.1283 11.6249 90.198 11.6249C90.4417 11.6249 90.6855 11.5198 90.8944 11.2747C91.1034 11.0296 91.2078 10.7494 91.2078 10.4343C91.2078 9.97907 90.9641 9.62895 90.4766 9.38384C89.989 9.13873 89.2926 8.99867 88.3871 8.99867C86.6459 8.99867 85.1484 9.62895 83.9296 10.8195C82.7106 12.01 82.1186 13.5507 82.1186 15.3014C82.1186 17.0172 82.6062 18.4179 83.5465 19.5033C84.5216 20.5888 85.7404 21.149 87.2727 21.149C87.9344 21.149 88.6309 21.009 89.3621 20.6938C90.0935 20.3787 90.8248 19.9586 91.591 19.3633L90.999 18.4878C90.4417 18.873 89.9542 19.1182 89.5014 19.2932ZM77.5914 9.10371C77.1387 9.03368 76.7208 8.99867 76.3378 8.99867C75.1188 8.99867 74.109 9.31381 73.308 9.97907C72.507 10.6444 72.124 11.4497 72.124 12.4652C72.124 13.3406 72.3677 14.0409 72.8553 14.5311C73.3428 15.0563 74.1786 15.5115 75.3278 15.8616C75.3975 15.8967 75.5368 15.9317 75.6761 15.9668C77.3128 16.4569 78.1486 17.1223 78.1486 17.9976C78.1486 18.5929 77.9048 19.0831 77.4173 19.4683C76.9298 19.8534 76.3029 20.0285 75.5019 20.0285C74.6314 20.0285 73.9697 19.7834 73.4821 19.2932C72.9945 18.803 72.716 18.1027 72.5767 17.1223L71.706 17.3324C71.7757 17.7875 71.8454 18.2427 71.8801 18.663C71.915 19.0831 71.9498 19.4683 71.9498 19.8185C71.9498 19.9935 71.9498 20.1336 71.9498 20.2036C71.9498 20.2737 71.9498 20.3787 71.915 20.4487C72.4722 20.6589 72.9945 20.8339 73.517 20.9389C74.0393 21.044 74.5617 21.114 75.0841 21.114C76.4771 21.114 77.6262 20.7288 78.4969 19.9935C79.3675 19.2582 79.8202 18.3128 79.8202 17.1572C79.8202 16.3869 79.6112 15.7566 79.1934 15.2665C78.7755 14.7762 78.1138 14.4261 77.1735 14.181C76.9994 14.1459 76.7556 14.0759 76.4422 13.9709C74.5965 13.4807 73.6911 12.7804 73.6911 11.9049C73.6911 11.3447 73.9 10.8895 74.3179 10.5394C74.7358 10.1892 75.2582 10.0141 75.9198 10.0141C76.686 10.0141 77.278 10.2243 77.6611 10.6094C78.0789 10.9946 78.3228 11.6249 78.4272 12.4302L79.2978 12.2901C79.1934 11.7999 79.1238 11.3097 79.0889 10.8195C79.0541 10.3293 79.0192 9.83909 79.0192 9.38384C78.5317 9.27879 78.0093 9.17375 77.5914 9.10371ZM65.6466 3.99146C65.4028 4.16654 65.2635 4.30661 65.159 4.44667C65.0893 4.58673 65.0546 4.72679 65.0546 4.90187C65.0546 5.07694 65.0893 5.217 65.1939 5.39208C65.2983 5.53214 65.4724 5.70722 65.6813 5.8823L66.4823 6.51257L67.353 5.84728C67.5619 5.6722 67.736 5.53214 67.8057 5.39208C67.8753 5.25202 67.945 5.11196 67.945 4.93688C67.945 4.76181 67.9102 4.58673 67.8057 4.41165C67.7012 4.23658 67.527 4.09651 67.3181 3.92143L66.5172 3.32617L65.6466 3.99146ZM65.96 9.48889C65.3332 9.66397 64.7411 9.80402 64.1143 9.9441L64.2187 10.6794C64.358 10.6444 64.4973 10.6444 64.6018 10.6444C64.7412 10.6444 64.8107 10.6094 64.8804 10.6094C65.1939 10.6094 65.4027 10.7144 65.542 10.9246C65.6813 11.1346 65.7162 11.5548 65.7162 12.1851C65.7162 12.2901 65.7162 12.5002 65.7162 12.8153C65.7162 13.1305 65.7162 13.4106 65.7162 13.6208L65.6813 16.527V17.1572C65.6813 19.0481 65.1939 20.0285 64.2187 20.0285H63.9402V20.8339C64.7063 20.7988 65.2983 20.7639 65.6813 20.7288C66.0645 20.7288 66.3779 20.6938 66.6216 20.6938C66.9003 20.6938 67.2485 20.6938 67.6316 20.7288C68.0494 20.7639 68.5718 20.7639 69.2334 20.8339V20.0285C69.1987 20.0285 69.129 20.0285 69.0594 20.0285C68.9897 20.0285 68.9201 20.0285 68.8853 20.0285C68.3977 20.0285 68.0494 19.9235 67.8753 19.6784C67.7012 19.4333 67.6316 18.873 67.6316 17.9627V16.702C67.6316 15.4065 67.6664 13.2005 67.7709 10.0842C67.7709 9.52391 67.8057 9.10371 67.8057 8.82359C67.1789 9.0687 66.552 9.31381 65.96 9.48889ZM49.3137 16.2119C49.3137 15.1264 49.3137 13.7607 49.3486 12.115C49.3834 10.4693 49.3834 8.22833 49.453 5.39208C49.9406 5.32205 50.4281 5.25202 50.9157 5.25202C51.4033 5.21701 51.856 5.217 52.3087 5.217C54.5374 5.217 56.2787 5.8823 57.5324 7.2479C58.7861 8.6135 59.4129 10.4693 59.4129 12.8504C59.4129 15.0914 58.8209 16.8071 57.6717 17.9976C56.4877 19.1882 54.8161 19.7834 52.6221 19.7834C52.0649 19.7834 51.5077 19.7484 50.9853 19.7134C50.4281 19.6433 49.871 19.5734 49.3137 19.4333V16.2119ZM46.7019 20.7288C47.1546 20.6938 47.5377 20.6938 47.8511 20.6938C48.5127 20.6938 49.4183 20.7288 50.4978 20.7988C51.5774 20.8689 52.3435 20.9039 52.7614 20.9039C55.5474 20.9039 57.7762 20.0985 59.4478 18.5229C61.1193 16.9472 61.9552 14.8462 61.9552 12.2201C61.9552 9.69899 61.1193 7.66809 59.4478 6.19743C57.7762 4.72679 55.5125 3.99146 52.6221 3.99146C52.448 3.99146 51.856 4.02647 50.8113 4.0965C49.7664 4.16654 48.8262 4.20156 47.9904 4.20156C47.677 4.20156 47.3287 4.20156 46.876 4.16654C46.4233 4.13152 45.9706 4.13152 45.4482 4.0965V4.90187H45.5527C46.1796 4.90187 46.6323 5.04193 46.876 5.28704C47.1198 5.53214 47.2591 6.02236 47.2591 6.68765C47.2591 7.49301 47.2591 8.22833 47.2591 8.85861C47.2591 9.48889 47.2591 10.1542 47.2591 10.8195L47.2243 13.9359C47.2243 14.356 47.2243 14.9163 47.1894 15.6516C47.1894 18.5578 46.667 19.9935 45.6223 19.9935C45.5179 19.9935 45.4482 19.9935 45.3786 19.9935C45.3089 19.9935 45.274 19.9935 45.2393 19.9935V20.7988C45.7616 20.7639 46.2492 20.7639 46.7019 20.7288Z" fill="#132E1D"/>
<path d="M134.425 30.2531H135.086V27.907L136.862 24.9307H136.096L134.772 27.2417L133.45 24.9307H132.683L134.425 27.907V30.2531ZM128.399 30.2531H129.062V24.9307H128.399V29.0975L125.335 24.9307H124.534V25.0007L124.918 25.561V30.3231H125.579V26.4714L128.399 30.2531ZM118.892 25.806L119.763 28.1171H118.056L118.892 25.806ZM120.495 30.2531H121.26L119.241 24.8957H118.474L116.455 30.2531H117.221L117.744 28.7473H119.902L120.495 30.2531ZM113.007 26.5414C113.007 27.2067 112.589 27.4868 112.032 27.4868H111.127V25.561H112.032C112.554 25.561 113.007 25.8761 113.007 26.5414ZM110.465 30.2531H111.127V28.1171H112.032C113.042 28.1171 113.704 27.5219 113.704 26.5064C113.704 25.4909 113.007 24.8957 112.032 24.8957H110.465V30.2531ZM103.849 30.2531L105.554 26.1912V30.2531H106.216V24.9307H105.415L103.57 29.4127L101.655 24.9307H100.853V30.288H101.515V26.1912L103.221 30.2531H103.849ZM92.2517 27.5918C92.2517 26.4363 93.1222 25.526 94.2715 25.526C95.4555 25.526 96.3261 26.4363 96.3261 27.5918C96.3261 28.7824 95.4555 29.6928 94.2715 29.6928C93.1222 29.6928 92.2517 28.7473 92.2517 27.5918ZM91.5551 27.5918C91.5551 29.1676 92.7392 30.3581 94.3062 30.3581C95.8734 30.3581 97.0575 29.1676 97.0575 27.5918C97.0575 26.0162 95.8734 24.8257 94.3062 24.8257C92.7392 24.8257 91.5551 26.0162 91.5551 27.5918ZM88.1423 29.2026C87.794 29.5177 87.3066 29.6928 86.7493 29.6928C85.5653 29.6928 84.7295 28.7824 84.7295 27.5918C84.7295 26.4363 85.6001 25.526 86.7493 25.526C87.3066 25.526 87.794 25.701 88.1423 26.0162V25.2109C87.7593 24.9657 87.2717 24.8257 86.7493 24.8257C85.1822 24.8257 83.9982 26.0162 83.9982 27.5918C83.9982 29.1676 85.1822 30.3581 86.7493 30.3581C87.2717 30.3581 87.7593 30.218 88.1423 29.9729V29.2026ZM73.2721 25.561C74.4562 25.561 75.1875 26.4363 75.1875 27.5918C75.1875 28.7824 74.4562 29.6228 73.2721 29.6228H72.0881V25.561H73.2721ZM71.3917 30.2531H73.2721C74.8741 30.2531 75.884 29.1325 75.884 27.5918C75.884 26.0512 74.8741 24.9307 73.2721 24.9307H71.3917V30.2531ZM66.5162 30.2531H67.1778V24.9307H66.5162V29.0975L63.4516 24.9307H62.6506V25.0007L63.0336 25.561V30.3231H63.6953V26.4714L66.5162 30.2531ZM57.009 25.806L57.8448 28.1171H56.1384L57.009 25.806ZM58.6458 30.2531H59.4119L57.3921 24.8957H56.6259L54.6061 30.2531H55.3722L55.8946 28.7473H58.0538L58.6458 30.2531ZM51.5764 30.2531V29.6228H49.3824V24.9307H48.7207V30.288L51.5764 30.2531Z" fill="#132E1D"/>
<path d="M1.63633 17.0176C1.63633 15.3018 1.91493 13.6561 2.40248 12.1504C2.92485 10.6098 3.65617 9.1741 4.59643 7.87852C5.57153 6.54794 6.75556 5.42744 8.07891 4.44701C9.40224 3.57161 10.7953 2.76626 12.3275 2.31106C13.7901 1.85586 15.3224 1.7158 16.9244 1.7158C18.6308 1.7158 20.2675 1.89088 21.7999 2.38109C23.3322 2.90632 24.7599 3.71169 26.0136 4.6571C27.337 5.63753 28.4862 6.82806 29.4264 8.15864C30.3319 9.45422 31.0633 10.8898 31.5508 12.3955C32.0035 13.8662 32.1777 15.4069 32.1777 17.0176C32.1777 18.7333 31.9338 20.3441 31.4114 21.8847C30.8891 23.4253 30.1926 24.8961 29.2523 26.1566C28.2773 27.4872 27.0932 28.6427 25.735 29.5881C24.4465 30.4985 23.0187 31.1988 21.4865 31.689C20.0238 32.1442 18.4915 32.4244 16.8895 32.4244C15.1831 32.4244 13.5464 32.1442 12.049 31.619C10.5167 31.0938 9.12364 30.3234 7.83513 29.378C6.51179 28.3976 5.32775 27.277 4.35266 25.9115C3.44721 24.6159 2.75072 23.1802 2.26318 21.6396C1.84528 20.204 1.63633 18.6282 1.63633 17.0176ZM1.28809 17.0176C1.28809 18.7333 1.56668 20.3441 2.05422 21.8847C2.57659 23.4954 3.30792 25.0011 4.28301 26.3316C5.2581 27.6622 6.44214 28.8177 7.76548 29.7982C9.08882 30.7436 10.5514 31.5139 12.1186 32.0392C13.616 32.5294 15.2528 32.7045 16.8895 32.7045C18.5959 32.7045 20.2328 32.5294 21.765 32.0042C23.3669 31.479 24.8644 30.7086 26.1877 29.7282C27.5111 28.7477 28.6254 27.5222 29.6006 26.1916C30.5408 24.861 31.2374 23.3904 31.7597 21.7796C32.2473 20.274 32.491 18.6633 32.491 16.9825C32.491 15.2668 32.2473 13.6561 31.7248 12.1154C31.2025 10.5047 30.5408 8.96399 29.5657 7.63341C28.5907 6.30282 27.4066 5.14731 26.0833 4.16689C24.7599 3.22146 23.2973 2.45112 21.6953 1.96091C20.1979 1.4707 18.5612 1.22559 16.9244 1.22559C15.218 1.22559 13.5812 1.50571 12.049 2.03094C10.447 2.55617 8.94952 3.29149 7.62618 4.27193C6.30285 5.25236 5.15363 6.44289 4.21336 7.80849C3.27309 9.13908 2.57659 10.6447 2.05422 12.2555C1.56668 13.7611 1.28809 15.3718 1.28809 17.0176Z" fill="#132E1D"/>
<path d="M3.41308 23.1798C3.30861 23.2148 3.23896 23.1798 3.16931 23.0747C3.13448 23.0047 3.16931 22.8997 3.27378 22.8647C3.37826 22.8296 3.48273 22.8647 3.51756 22.9697C3.55238 23.0398 3.48273 23.1448 3.41308 23.1798Z" fill="#132E1D"/>
<path d="M4.45801 22.7594C4.35353 22.7945 4.28389 22.7594 4.21423 22.6544C4.1794 22.5843 4.21423 22.4793 4.3187 22.4443C4.42319 22.4093 4.52766 22.4443 4.56248 22.5494C4.5973 22.6194 4.56248 22.7244 4.45801 22.7594Z" fill="#132E1D"/>
<path d="M5.53906 22.339C5.43459 22.3741 5.36493 22.339 5.29529 22.234C5.26046 22.1639 5.29529 22.0589 5.39976 22.0239C5.50423 21.9889 5.60871 22.0239 5.64353 22.129C5.67836 22.1989 5.60871 22.304 5.53906 22.339Z" fill="#132E1D"/>
<path d="M6.61718 21.9191C6.51271 21.9541 6.44307 21.9191 6.37341 21.8141C6.33858 21.744 6.37341 21.6389 6.47788 21.6039C6.58237 21.569 6.68684 21.6039 6.72166 21.7089C6.75648 21.744 6.68684 21.849 6.61718 21.9191Z" fill="#132E1D"/>
<path d="M7.66211 21.4645C7.55763 21.4995 7.48798 21.4645 7.41833 21.3595C7.38351 21.2894 7.41833 21.1844 7.52281 21.1493C7.62728 21.1144 7.73175 21.1493 7.76658 21.2545C7.80141 21.3245 7.76658 21.4295 7.66211 21.4645Z" fill="#132E1D"/>
<path d="M8.74121 21.0441C8.63674 21.0791 8.56708 21.0441 8.49744 20.9391C8.46261 20.869 8.49744 20.764 8.60191 20.7289C8.70638 20.694 8.81085 20.7289 8.84568 20.8339C8.88051 20.904 8.84568 21.0091 8.74121 21.0441Z" fill="#132E1D"/>
<path d="M9.82027 20.589C9.71584 20.624 9.64619 20.589 9.57654 20.4839C9.54171 20.4139 9.57654 20.3089 9.68101 20.2739C9.78549 20.2388 9.88992 20.2739 9.9248 20.3789C9.95958 20.4489 9.9248 20.554 9.82027 20.589Z" fill="#132E1D"/>
<path d="M10.9004 20.1687C10.7959 20.2036 10.7263 20.1687 10.6566 20.0636C10.6218 19.9935 10.6566 19.8885 10.7611 19.8534C10.8656 19.8185 10.97 19.8534 11.0049 19.9586C11.0397 20.0286 10.97 20.1336 10.9004 20.1687Z" fill="#132E1D"/>
<path d="M11.9453 19.7482C11.8408 19.7832 11.7711 19.7482 11.7016 19.6432C11.6667 19.5731 11.7016 19.4681 11.806 19.433C11.9104 19.3981 12.015 19.433 12.0497 19.5381C12.0846 19.6082 12.0497 19.7132 11.9453 19.7482Z" fill="#132E1D"/>
<path d="M10.7948 30.6381C10.76 30.7431 10.6555 30.7782 10.5858 30.7431C10.5162 30.7082 10.4465 30.6031 10.5162 30.498C10.5858 30.393 10.6555 30.358 10.76 30.393C10.8297 30.428 10.8644 30.533 10.7948 30.6381Z" fill="#132E1D"/>
<path d="M11.2479 29.5527C11.213 29.6577 11.1086 29.6928 11.0389 29.6577C10.9693 29.6227 10.8996 29.5176 10.9693 29.4126C11.0389 29.3076 11.1086 29.2725 11.213 29.3076C11.2479 29.3426 11.3176 29.4476 11.2479 29.5527Z" fill="#132E1D"/>
<path d="M11.701 28.4677C11.6662 28.5727 11.5617 28.6078 11.4921 28.5727C11.4224 28.5378 11.3528 28.4327 11.4224 28.3276C11.4573 28.2226 11.5617 28.1876 11.6662 28.2226C11.701 28.2927 11.7359 28.3977 11.701 28.4677Z" fill="#132E1D"/>
<path d="M12.1541 27.3812C12.1193 27.4864 12.0148 27.5213 11.9452 27.4864C11.8755 27.4513 11.8059 27.3463 11.8755 27.2413C11.9452 27.1362 12.0148 27.1012 12.1193 27.1362C12.1541 27.2062 12.1889 27.3112 12.1541 27.3812Z" fill="#132E1D"/>
<path d="M12.6063 26.3315C12.5714 26.4365 12.467 26.4716 12.3973 26.4365C12.3277 26.4015 12.258 26.2964 12.3277 26.1914C12.3626 26.0864 12.467 26.0513 12.5714 26.0864C12.6063 26.1214 12.6411 26.2264 12.6063 26.3315Z" fill="#132E1D"/>
<path d="M13.0593 25.246C13.0245 25.351 12.92 25.3861 12.8505 25.351C12.7808 25.3161 12.7112 25.211 12.7808 25.106C12.8505 25.0009 12.92 24.9659 13.0245 25.0009C13.0593 25.0359 13.0942 25.141 13.0593 25.246Z" fill="#132E1D"/>
<path d="M13.5106 24.1606C13.4758 24.2656 13.3712 24.3007 13.3016 24.2656C13.2319 24.2306 13.1624 24.1256 13.2319 24.0205C13.2668 23.9155 13.3712 23.8804 13.4758 23.9155C13.5106 23.9505 13.5454 24.0556 13.5106 24.1606Z" fill="#132E1D"/>
<path d="M13.9637 23.0746C13.9288 23.1797 13.8244 23.2147 13.7548 23.1797C13.6851 23.1446 13.6154 23.0396 13.6851 22.9346C13.7548 22.8295 13.8244 22.7945 13.9288 22.8295C13.9637 22.8646 13.9985 22.9696 13.9637 23.0746Z" fill="#132E1D"/>
<path d="M14.3817 22.0244C14.3468 22.1294 14.2424 22.1644 14.1727 22.1294C14.1031 22.0944 14.0334 21.9893 14.1031 21.8843C14.1727 21.7793 14.2424 21.7442 14.3468 21.7793C14.4165 21.8142 14.4513 21.9192 14.3817 22.0244Z" fill="#132E1D"/>
<path d="M22.8474 30.6381C22.8823 30.7431 22.9867 30.7782 23.0564 30.7431C23.126 30.7082 23.1957 30.6031 23.126 30.498C23.0564 30.393 22.9867 30.358 22.8823 30.393C22.8474 30.428 22.8126 30.533 22.8474 30.6381Z" fill="#132E1D"/>
<path d="M22.3943 29.5527C22.4291 29.6577 22.5336 29.6928 22.6032 29.6577C22.6729 29.6227 22.7425 29.5176 22.6729 29.4126C22.6032 29.3076 22.5336 29.2725 22.4291 29.3076C22.3943 29.3426 22.3595 29.4476 22.3943 29.5527Z" fill="#132E1D"/>
<path d="M21.9412 28.4677C21.976 28.5727 22.0805 28.6078 22.1501 28.5727C22.2198 28.5378 22.2894 28.4327 22.2198 28.3276C22.1849 28.2226 22.0805 28.1876 21.976 28.2226C21.9412 28.2927 21.9064 28.3977 21.9412 28.4677Z" fill="#132E1D"/>
<path d="M21.4881 27.3812C21.5229 27.4864 21.6274 27.5213 21.697 27.4864C21.7667 27.4513 21.8363 27.3463 21.7667 27.2413C21.697 27.1362 21.6274 27.1012 21.5229 27.1362C21.4881 27.2062 21.4532 27.3112 21.4881 27.3812Z" fill="#132E1D"/>
<path d="M21.0359 26.3315C21.0708 26.4365 21.1752 26.4716 21.2449 26.4365C21.3145 26.4015 21.3842 26.2964 21.3145 26.1914C21.2797 26.0864 21.1752 26.0513 21.0708 26.0864C21.0359 26.1214 21.0011 26.2264 21.0359 26.3315Z" fill="#132E1D"/>
<path d="M20.5828 25.246C20.6176 25.351 20.7221 25.3861 20.7918 25.351C20.8614 25.3161 20.9311 25.211 20.8614 25.106C20.7918 25.0009 20.7221 24.9659 20.6176 25.0009C20.5828 25.0359 20.5479 25.141 20.5828 25.246Z" fill="#132E1D"/>
<path d="M20.1296 24.1606C20.1645 24.2656 20.2689 24.3007 20.3386 24.2656C20.4083 24.2306 20.4779 24.1256 20.4083 24.0205C20.3735 23.9155 20.2689 23.8804 20.1645 23.9155C20.1296 23.9505 20.0949 24.0556 20.1296 24.1606Z" fill="#132E1D"/>
<path d="M19.7114 23.0746C19.7462 23.1797 19.8508 23.2147 19.9204 23.1797C19.9901 23.1446 20.0597 23.0396 19.9901 22.9346C19.9204 22.8295 19.8508 22.7945 19.7462 22.8295C19.7114 22.8646 19.6418 22.9696 19.7114 23.0746Z" fill="#132E1D"/>
<path d="M19.2585 22.0244C19.2934 22.1294 19.3979 22.1644 19.4675 22.1294C19.5372 22.0944 19.6068 21.9893 19.5372 21.8843C19.4675 21.7793 19.3979 21.7442 19.2934 21.7793C19.2585 21.8142 19.2238 21.9192 19.2585 22.0244Z" fill="#132E1D"/>
<path d="M30.4717 11.1705C30.5762 11.1354 30.611 11.0304 30.5762 10.9604C30.5414 10.8903 30.4368 10.8203 30.3324 10.8903C30.2279 10.9604 30.1931 11.0304 30.2279 11.1354C30.2628 11.1705 30.3672 11.2405 30.4717 11.1705Z" fill="#132E1D"/>
<path d="M29.4277 11.6255C29.5322 11.5905 29.567 11.4855 29.5322 11.4155C29.4974 11.3454 29.3928 11.2754 29.2884 11.3454C29.184 11.4155 29.1491 11.4855 29.184 11.5905C29.2188 11.6255 29.3233 11.6955 29.4277 11.6255Z" fill="#132E1D"/>
<path d="M28.3467 12.0811C28.4512 12.0461 28.486 11.9411 28.4512 11.871C28.4163 11.801 28.3119 11.7309 28.2074 11.801C28.1029 11.871 28.068 11.9411 28.1029 12.0461C28.1726 12.0811 28.277 12.1161 28.3467 12.0811Z" fill="#132E1D"/>
<path d="M27.3017 12.5366C27.4062 12.5016 27.4411 12.3966 27.4062 12.3266C27.3714 12.2566 27.2669 12.1865 27.1624 12.2566C27.058 12.3266 27.0231 12.3966 27.058 12.5016C27.0928 12.5366 27.1973 12.5717 27.3017 12.5366Z" fill="#132E1D"/>
<path d="M26.2217 12.9908C26.3262 12.9558 26.361 12.8507 26.3262 12.7806C26.2914 12.7106 26.1868 12.6407 26.0824 12.7106C25.9779 12.7806 25.9431 12.8507 25.9779 12.9558C26.0475 12.9908 26.1521 13.0258 26.2217 12.9908Z" fill="#132E1D"/>
<path d="M25.1767 13.4464C25.2813 13.4113 25.3161 13.3063 25.2813 13.2363C25.2464 13.1662 25.142 13.0962 25.0374 13.1662C24.933 13.2363 24.8981 13.3063 24.933 13.4113C24.9678 13.4464 25.0723 13.5164 25.1767 13.4464Z" fill="#132E1D"/>
<path d="M24.0976 13.9365C24.2021 13.9015 24.237 13.7965 24.2021 13.7265C24.1673 13.6565 24.0628 13.5864 23.9583 13.6565C23.8539 13.7265 23.819 13.7965 23.8539 13.9015C23.9236 13.9365 24.028 13.9716 24.0976 13.9365Z" fill="#132E1D"/>
<path d="M23.0527 14.3922C23.1572 14.3571 23.192 14.2521 23.1572 14.1821C23.1223 14.112 23.0179 14.042 22.9135 14.112C22.8089 14.1821 22.7742 14.2521 22.8089 14.3571C22.8438 14.3922 22.9482 14.4272 23.0527 14.3922Z" fill="#132E1D"/>
<path d="M22.0088 14.8121C22.1133 14.7771 22.148 14.672 22.1133 14.6019C22.0785 14.5319 21.974 14.462 21.8695 14.5319C21.765 14.567 21.7302 14.672 21.765 14.7771C21.7999 14.8121 21.9043 14.8471 22.0088 14.8121Z" fill="#132E1D"/>
<path d="M3.13316 11.1001C3.02869 11.0651 2.99386 10.96 3.02869 10.8901C3.06351 10.82 3.16799 10.75 3.27246 10.82C3.37693 10.89 3.41176 10.96 3.37693 11.0651C3.3421 11.1001 3.2028 11.1352 3.13316 11.1001Z" fill="#132E1D"/>
<path d="M4.17808 11.5558C4.07361 11.5207 4.03878 11.4157 4.07361 11.3456C4.10843 11.2756 4.21291 11.2056 4.31738 11.2756C4.42185 11.3456 4.45668 11.4157 4.42185 11.5207C4.38703 11.5558 4.28255 11.5907 4.17808 11.5558Z" fill="#132E1D"/>
<path d="M5.22397 12.0107C5.1195 11.9758 5.08468 11.8707 5.1195 11.8007C5.15433 11.7307 5.2588 11.6606 5.36327 11.7307C5.46775 11.8006 5.50257 11.8707 5.46776 11.9758C5.43293 12.0107 5.32846 12.0458 5.22397 12.0107Z" fill="#132E1D"/>
<path d="M6.30113 12.4664C6.19665 12.4313 6.16183 12.3263 6.19665 12.2563C6.23148 12.1862 6.33595 12.1162 6.44043 12.1862C6.5449 12.2563 6.57973 12.3263 6.5449 12.4313C6.51008 12.4664 6.40561 12.5014 6.30113 12.4664Z" fill="#132E1D"/>
<path d="M7.348 12.9204C7.24353 12.8854 7.2087 12.7804 7.24353 12.7104C7.27836 12.6403 7.38283 12.5703 7.4873 12.6403C7.59177 12.7104 7.6266 12.7804 7.59177 12.8854C7.55696 12.9204 7.45247 12.9555 7.348 12.9204Z" fill="#132E1D"/>
<path d="M8.4271 13.3761C8.32263 13.341 8.2878 13.236 8.32263 13.1659C8.35746 13.0959 8.46193 13.0259 8.5664 13.0959C8.67088 13.1659 8.7057 13.236 8.67088 13.341C8.63606 13.3761 8.53158 13.411 8.4271 13.3761Z" fill="#132E1D"/>
<path d="M9.50523 13.8315C9.40075 13.7966 9.36593 13.6916 9.40075 13.6215C9.43558 13.5515 9.54005 13.4814 9.64452 13.5515C9.74901 13.6215 9.78378 13.6916 9.74901 13.7966C9.67935 13.8315 9.57488 13.8666 9.50523 13.8315Z" fill="#132E1D"/>
<path d="M10.5521 14.2867C10.4476 14.2516 10.4128 14.1466 10.4476 14.0766C10.4825 14.0066 10.5869 13.9365 10.6914 14.0066C10.7959 14.0766 10.8308 14.1466 10.7959 14.2517C10.7611 14.2867 10.6566 14.3217 10.5521 14.2867Z" fill="#132E1D"/>
<path d="M11.5951 14.7422C11.4906 14.7072 11.4557 14.6022 11.4906 14.5322C11.5254 14.4621 11.6298 14.3921 11.7344 14.4621C11.8388 14.4971 11.8737 14.6022 11.8388 14.7072C11.804 14.7422 11.6995 14.7772 11.5951 14.7422Z" fill="#132E1D"/>
<path d="M19.2586 11.8701C19.2238 11.9751 19.1193 12.0101 19.0497 11.9751C18.98 11.9401 18.9104 11.835 18.98 11.73C19.0148 11.6249 19.1193 11.59 19.2238 11.6249C19.2586 11.66 19.2934 11.765 19.2586 11.8701Z" fill="#132E1D"/>
<path d="M19.7118 10.7846C19.677 10.8896 19.5725 10.9247 19.5028 10.8896C19.4331 10.8547 19.3635 10.7495 19.4331 10.6445C19.468 10.5395 19.5725 10.5045 19.677 10.5395C19.7118 10.6095 19.7466 10.7146 19.7118 10.7846Z" fill="#132E1D"/>
<path d="M20.1639 9.7343C20.129 9.83941 20.0246 9.87438 19.955 9.83941C19.8853 9.80434 19.8156 9.6993 19.8853 9.59426C19.9201 9.48921 20.0246 9.45419 20.129 9.48921C20.1639 9.52423 20.1987 9.62927 20.1639 9.7343Z" fill="#132E1D"/>
<path d="M20.617 8.64837C20.5823 8.75342 20.4777 8.78843 20.4081 8.75342C20.3384 8.7184 20.2688 8.61336 20.3384 8.50831C20.3733 8.40327 20.4777 8.36825 20.5823 8.40327C20.617 8.43828 20.6519 8.54333 20.617 8.64837Z" fill="#132E1D"/>
<path d="M21.0702 7.59808C21.0353 7.70312 20.9309 7.73814 20.8612 7.70312C20.7915 7.66811 20.7219 7.56306 20.7915 7.45802C20.8263 7.35297 20.9309 7.31796 21.0353 7.35297C21.0702 7.38799 21.1049 7.49303 21.0702 7.59808Z" fill="#132E1D"/>
<path d="M21.5233 6.51263C21.4884 6.61768 21.384 6.65269 21.3143 6.61768C21.2447 6.58266 21.175 6.47762 21.2447 6.37257C21.2795 6.26752 21.384 6.23251 21.4884 6.26752C21.5233 6.33755 21.5581 6.4426 21.5233 6.51263Z" fill="#132E1D"/>
<path d="M21.9735 5.46283C21.9386 5.56787 21.8342 5.60289 21.7645 5.56787C21.6949 5.53286 21.6252 5.42781 21.6949 5.32276C21.7297 5.21772 21.8342 5.1827 21.9386 5.21772C21.9735 5.25273 22.0083 5.35778 21.9735 5.46283Z" fill="#132E1D"/>
<path d="M22.4265 4.41156C22.3917 4.5166 22.2872 4.55162 22.2176 4.5166C22.148 4.48159 22.0783 4.37654 22.148 4.27149C22.1828 4.16645 22.2872 4.13143 22.3917 4.16645C22.4265 4.20146 22.4614 4.30651 22.4265 4.41156Z" fill="#132E1D"/>
<path d="M22.8797 3.32611C22.8449 3.43116 22.7404 3.46618 22.6708 3.43116C22.6011 3.39614 22.5315 3.29109 22.6011 3.18605C22.6359 3.081 22.7404 3.04598 22.8449 3.081C22.8797 3.11602 22.9145 3.22106 22.8797 3.32611Z" fill="#132E1D"/>
<path d="M14.2771 11.9751C14.312 12.0801 14.4164 12.1151 14.4861 12.0801C14.5557 12.045 14.6254 11.94 14.5557 11.835C14.5209 11.7299 14.4164 11.6949 14.312 11.7299C14.2771 11.765 14.2423 11.87 14.2771 11.9751Z" fill="#132E1D"/>
<path d="M13.824 10.8901C13.8588 10.9951 13.9633 11.0302 14.0329 10.9951C14.1026 10.9601 14.1722 10.855 14.1026 10.75C14.0329 10.645 13.9633 10.6099 13.8588 10.645C13.824 10.7149 13.7892 10.82 13.824 10.8901Z" fill="#132E1D"/>
<path d="M13.3719 9.83977C13.4066 9.94488 13.5111 9.97985 13.5807 9.94488C13.6504 9.90981 13.72 9.8048 13.6504 9.69972C13.6156 9.59468 13.5111 9.55966 13.4066 9.59468C13.3719 9.62969 13.337 9.73476 13.3719 9.83977Z" fill="#132E1D"/>
<path d="M12.9187 8.75336C12.9536 8.85841 13.058 8.89342 13.1277 8.85841C13.1973 8.82339 13.267 8.71835 13.1973 8.6133C13.1624 8.50825 13.058 8.47324 12.9536 8.50825C12.9187 8.54327 12.8839 8.68333 12.9187 8.75336Z" fill="#132E1D"/>
<path d="M12.4656 7.70356C12.5004 7.8086 12.6049 7.84362 12.6746 7.8086C12.7442 7.77359 12.8138 7.66854 12.7442 7.5635C12.7094 7.45845 12.6049 7.42343 12.5004 7.45845C12.4656 7.49346 12.4307 7.59851 12.4656 7.70356Z" fill="#132E1D"/>
<path d="M12.0125 6.6181C12.0473 6.72314 12.1518 6.75816 12.2214 6.72315C12.2911 6.68813 12.3607 6.58308 12.2911 6.47804C12.2563 6.37299 12.1518 6.33798 12.0473 6.37299C12.0125 6.44302 11.9777 6.54807 12.0125 6.6181Z" fill="#132E1D"/>
<path d="M11.5623 5.5678C11.5971 5.67285 11.7016 5.70787 11.7712 5.67285C11.8409 5.63784 11.9105 5.53279 11.8409 5.42774C11.8061 5.3227 11.7016 5.28768 11.5971 5.3227C11.5623 5.35771 11.5275 5.46276 11.5623 5.5678Z" fill="#132E1D"/>
<path d="M11.1092 4.51653C11.144 4.62159 11.2485 4.6566 11.3181 4.62159C11.3878 4.58657 11.4574 4.48152 11.3878 4.37647C11.3529 4.27143 11.2485 4.23641 11.144 4.27143C11.1092 4.30644 11.0743 4.41149 11.1092 4.51653Z" fill="#132E1D"/>
<path d="M10.6561 3.43158C10.6908 3.53662 10.7953 3.57164 10.8649 3.53662C10.9346 3.50161 11.0042 3.39656 10.9346 3.29151C10.8998 3.18647 10.7953 3.15145 10.6908 3.18647C10.6561 3.22148 10.6212 3.36155 10.6561 3.43158Z" fill="#132E1D"/>
<path d="M30.4033 22.9701C30.5078 23.0051 30.5426 23.1102 30.5078 23.1802C30.4729 23.2503 30.3685 23.3202 30.2641 23.2503C30.1595 23.2152 30.1247 23.1102 30.1595 23.0051C30.2292 22.9701 30.3337 22.935 30.4033 22.9701Z" fill="#132E1D"/>
<path d="M29.3594 22.515C29.4638 22.55 29.4987 22.6551 29.4638 22.7251C29.429 22.7951 29.3245 22.8652 29.2201 22.7951C29.1156 22.7602 29.0807 22.6551 29.1156 22.55C29.1504 22.515 29.2548 22.48 29.3594 22.515Z" fill="#132E1D"/>
<path d="M28.3144 22.0594C28.419 22.0944 28.4538 22.1995 28.419 22.2696C28.3841 22.3396 28.2797 22.4096 28.1751 22.3396C28.0707 22.3045 28.0358 22.1995 28.0707 22.0944C28.1055 22.0595 28.21 22.0244 28.3144 22.0594Z" fill="#132E1D"/>
<path d="M27.2334 21.6043C27.3378 21.6394 27.3727 21.7444 27.3378 21.8144C27.303 21.8845 27.1985 21.9545 27.0941 21.8845C26.9896 21.8144 26.9548 21.7444 26.9896 21.6394C27.0592 21.6043 27.1637 21.5694 27.2334 21.6043Z" fill="#132E1D"/>
<path d="M26.1895 21.1488C26.2939 21.1838 26.3288 21.2889 26.2939 21.3589C26.2592 21.429 26.1546 21.4989 26.0502 21.429C25.9457 21.3939 25.9109 21.2889 25.9457 21.1838C25.9805 21.1488 26.085 21.1137 26.1895 21.1488Z" fill="#132E1D"/>
<path d="M25.1084 20.6934C25.2128 20.7285 25.2477 20.8335 25.2128 20.9035C25.178 21.0085 25.0736 21.0436 24.9691 21.0085C24.8646 20.9736 24.8298 20.8686 24.8646 20.7634C24.9343 20.6934 25.0387 20.6584 25.1084 20.6934Z" fill="#132E1D"/>
<path d="M24.0654 20.2391C24.1699 20.2741 24.2047 20.3791 24.1699 20.4492C24.1351 20.5192 24.0305 20.5892 23.9261 20.5192C23.8217 20.4492 23.7868 20.3791 23.8217 20.2741C23.8565 20.2391 23.9609 20.2041 24.0654 20.2391Z" fill="#132E1D"/>
<path d="M22.9843 19.7835C23.0889 19.8186 23.1236 19.9236 23.0889 19.9936C23.054 20.0637 22.9495 20.1337 22.845 20.0637C22.7406 19.9936 22.7058 19.9236 22.7406 19.8186C22.7754 19.7835 22.9147 19.7486 22.9843 19.7835Z" fill="#132E1D"/>
<path d="M21.9404 19.3285C22.0449 19.3635 22.0797 19.4685 22.0449 19.5385C22.01 19.6086 21.9056 19.6786 21.8012 19.6086C21.6966 19.5385 21.6619 19.4685 21.6966 19.3635C21.7315 19.3285 21.8708 19.2934 21.9404 19.3285Z" fill="#132E1D"/>
<path d="M0.661669 16.9825C0.661669 7.98352 7.94004 0.665294 16.89 0.665294C25.8399 0.665294 33.1183 7.98352 33.1183 16.9825C33.1183 25.9814 25.8748 33.3347 16.89 33.3347C7.90521 33.3347 0.661669 25.9814 0.661669 16.9825ZM0 16.9825C0 26.3666 7.59179 33.965 16.89 33.965C26.1882 33.965 33.78 26.3316 33.78 16.9825C33.78 7.63337 26.2231 0 16.89 0C7.55697 0 0 7.63337 0 16.9825Z" fill="#132E1D"/>
<path d="M23.6827 23.8315L23.5596 23.9554L27.8202 28.2387L27.9433 28.115L23.6827 23.8315Z" fill="#132E1D"/>
<path d="M5.98926 6.16301L10.0638 10.2598L10.2031 10.1547L6.09374 6.02295L5.98926 6.16301Z" fill="#132E1D"/>
<path d="M23.7158 10.0841L23.8203 10.2241L27.7903 6.19734L27.6858 6.09229L23.7158 10.0841Z" fill="#132E1D"/>
<path d="M6.09473 27.9069L6.23403 28.047L10.0647 24.1602L9.96027 24.0552L6.09473 27.9069Z" fill="#132E1D"/>
<path d="M16.787 15.5469H16.2646V17.8229C16.2646 18.3481 16.3343 18.4532 16.7174 18.4532H16.787C17.8317 18.4532 18.0407 17.6478 18.0407 17.0175C18.0756 16.3522 17.8666 15.5469 16.787 15.5469Z" fill="#132E1D"/>
<path d="M31.969 16.9471L19.8153 15.2314L22.8798 10.9945L18.666 13.9708L16.8551 1.85547L15.1836 13.9708L10.9698 10.9945L13.9299 15.2314L1.8457 16.9471L13.9996 18.7679L10.9349 23.0048L15.1487 20.0285L16.8203 32.1438L18.6313 19.9234L22.845 23.0048L19.885 18.7679L31.969 16.9471ZM16.7856 18.7329H15.0791V18.5579C15.6014 18.5579 15.706 18.4178 15.706 17.6124V16.3169C15.706 15.5115 15.6014 15.3714 15.0791 15.3714V15.1963H16.7856C18.1437 15.1963 18.7357 16.0017 18.7357 16.9471C18.7357 17.9626 18.1437 18.7329 16.7856 18.7329Z" fill="#132E1D"/>
</g>
</g>
<defs>
<clipPath id="clip0_3090_4669">
<rect width="151" height="34" fill="white"/>
</clipPath>
</defs>
</svg>
